<svg width="144" height="24" viewBox="0 0 144 24" fill="none" xmlns="http://www.w3.org/2000/svg">
<circle cx="12" cy="12" r="12" fill="#8D84B9"/>
<path d="M11.1338 17H12.4218V6.878H9.78981V8.04H11.1338V17Z" fill="white"/>
<circle cx="72" cy="12" r="11.5" fill="white" stroke="#8D84B9"/>
<path d="M69.1876 16.888H75.9216V15.824H71.1056C72.9116 14.354 75.6276 12.212 75.6276 9.692C75.6276 7.816 74.3956 6.696 72.4916 6.696C70.6716 6.696 69.3136 7.816 69.2296 9.972H70.4616C70.5176 8.698 71.1896 7.788 72.5056 7.788C73.8776 7.788 74.3676 8.628 74.3676 9.748C74.3676 11.82 71.8476 13.836 69.1876 15.978V16.888Z" fill="#8D84B9"/>
<circle cx="132" cy="12" r="11.5" fill="white" stroke="#8D84B9"/>
<path d="M129.218 9.426H130.464C130.59 8.446 131.304 7.774 132.494 7.774C133.712 7.774 134.356 8.446 134.356 9.412C134.356 10.588 133.446 11.106 131.752 11.12H131.416V12.184H131.738C133.558 12.184 134.552 12.73 134.552 14.158C134.552 15.194 133.908 15.992 132.55 15.992C131.206 15.992 130.422 15.166 130.296 14.088H129.064C129.218 16.048 130.646 17.07 132.564 17.07C134.678 17.07 135.77 15.838 135.77 14.27C135.77 12.814 134.972 11.946 133.796 11.666V11.596C134.86 11.358 135.588 10.448 135.588 9.286C135.588 7.83 134.51 6.682 132.536 6.682C130.66 6.682 129.344 7.69 129.218 9.426Z" fill="#8D84B9"/>
<rect x="23" y="11" width="38" height="2" fill="#8D84B9"/>
<rect x="83" y="11" width="38" height="2" fill="#8D84B9"/>
</svg>
