<svg width="18" height="18" viewBox="0 0 18 18" fill="none" xmlns="http://www.w3.org/2000/svg">
<path d="M8.4366 17.6733C8.22472 17.4554 8.11377 17.1782 8.10376 16.8416C8.09451 16.505 8.19583 16.2277 8.4077 16.0099L14.0706 10.1881H1.1557C0.82825 10.1881 0.55358 10.0741 0.331686 9.84594C0.110562 9.61861 0 9.33663 0 9C0 8.66337 0.110562 8.38099 0.331686 8.15287C0.55358 7.92554 0.82825 7.81188 1.1557 7.81188H14.0706L8.4077 1.9901C8.19583 1.77228 8.09451 1.49505 8.10376 1.15842C8.11377 0.821782 8.22472 0.544554 8.4366 0.326732C8.64847 0.10891 8.91814 0 9.24559 0C9.57303 0 9.8427 0.10891 10.0546 0.326732L17.6822 8.16832C17.7978 8.26733 17.8798 8.39089 17.9283 8.53901C17.9761 8.68792 18 8.84158 18 9C18 9.15842 17.9761 9.30693 17.9283 9.44554C17.8798 9.58416 17.7978 9.71287 17.6822 9.83168L10.0546 17.6733C9.8427 17.8911 9.57303 18 9.24559 18C8.91814 18 8.64847 17.8911 8.4366 17.6733V17.6733Z" fill="white"/>
</svg>
