<svg width="236" height="31" viewBox="0 0 236 31" fill="none" xmlns="http://www.w3.org/2000/svg">
<rect width="236" height="31" rx="5" fill="#8D84B9"/>
<path d="M15.6991 17.214C15.6991 18.152 15.0411 18.698 13.9631 18.698H11.8071V15.66H13.9071C14.9711 15.66 15.6991 16.248 15.6991 17.214ZM15.4471 12.972C15.4471 13.868 14.8171 14.358 13.7811 14.358H11.8071V11.572H13.7811C14.8171 11.572 15.4471 12.09 15.4471 12.972ZM17.2951 17.382C17.2951 16.22 16.4551 15.184 15.4191 15.002C16.3571 14.666 17.0711 13.952 17.0711 12.776C17.0711 11.404 15.9791 10.27 13.9211 10.27H10.2111V20H14.1031C16.0911 20 17.2951 18.866 17.2951 17.382ZM18.4975 16.108C18.4975 18.488 20.1075 20.126 22.1095 20.126C23.3975 20.126 24.3215 19.51 24.8115 18.852V20H26.4215V12.286H24.8115V13.406C24.3355 12.776 23.4395 12.16 22.1375 12.16C20.1075 12.16 18.4975 13.728 18.4975 16.108ZM24.8115 16.136C24.8115 17.802 23.6775 18.74 22.4735 18.74C21.2835 18.74 20.1355 17.774 20.1355 16.108C20.1355 14.442 21.2835 13.546 22.4735 13.546C23.6775 13.546 24.8115 14.484 24.8115 16.136ZM30.1138 13.434V9.64H28.5178V20H30.1138V18.88C30.6178 19.552 31.5278 20.126 32.8018 20.126C34.8318 20.126 36.4278 18.488 36.4278 16.108C36.4278 13.728 34.8458 12.16 32.8018 12.16C31.5838 12.16 30.6178 12.734 30.1138 13.434ZM34.8038 16.108C34.8038 17.774 33.6558 18.74 32.4518 18.74C31.2618 18.74 30.1138 17.802 30.1138 16.136C30.1138 14.484 31.2618 13.546 32.4518 13.546C33.6558 13.546 34.8038 14.442 34.8038 16.108ZM41.0441 18.166L38.8741 12.286H37.0961L40.1341 19.874L38.5661 23.626H40.2181L44.9501 12.286H43.2981L41.0441 18.166ZM56.3572 17.242C56.3572 13.686 51.2052 15.058 51.2052 12.86C51.2052 11.922 51.9192 11.474 52.8432 11.502C53.8512 11.53 54.4252 12.132 54.4812 12.79H56.2452C56.1052 11.124 54.7892 10.144 52.9272 10.144C50.9392 10.144 49.5812 11.208 49.5812 12.916C49.5812 16.5 54.7472 14.974 54.7472 17.326C54.7472 18.152 54.1172 18.754 52.9972 18.754C51.8912 18.754 51.3312 18.11 51.2612 17.312H49.5532C49.5532 19.034 51.0512 20.098 52.9972 20.098C55.1672 20.098 56.3572 18.698 56.3572 17.242ZM58.2404 20H59.8364V16.682L62.6924 20H64.8484L61.2924 16.15L64.8484 12.286H62.6364L59.8364 15.66V9.64H58.2404V20ZM65.9924 20H67.5884V12.286H65.9924V20ZM66.8044 11.264C67.3644 11.264 67.8124 10.816 67.8124 10.242C67.8124 9.668 67.3644 9.22 66.8044 9.22C66.2304 9.22 65.7824 9.668 65.7824 10.242C65.7824 10.816 66.2304 11.264 66.8044 11.264ZM75.1578 20H76.7398V15.45C76.7398 13.294 75.3818 12.16 73.5758 12.16C72.6518 12.16 71.7978 12.538 71.2798 13.168V12.286H69.6838V20H71.2798V15.688C71.2798 14.274 72.0498 13.546 73.2258 13.546C74.3878 13.546 75.1578 14.274 75.1578 15.688V20ZM88.5863 20H90.1823V10.27H88.5863V14.442H84.0083V10.27H82.4123V20H84.0083V15.744H88.5863V20ZM95.5314 13.504C96.7214 13.504 97.6594 14.26 97.6874 15.45H93.4174C93.5854 14.232 94.4534 13.504 95.5314 13.504ZM99.1434 17.704H97.4214C97.1274 18.306 96.5814 18.782 95.6014 18.782C94.4254 18.782 93.5154 18.012 93.4034 16.738H99.2974C99.3394 16.472 99.3534 16.22 99.3534 15.954C99.3534 13.686 97.7994 12.16 95.6014 12.16C93.3194 12.16 91.7514 13.714 91.7514 16.136C91.7514 18.558 93.3894 20.126 95.6014 20.126C97.4914 20.126 98.7094 19.048 99.1434 17.704ZM100.392 16.108C100.392 18.488 102.002 20.126 104.004 20.126C105.292 20.126 106.216 19.51 106.706 18.852V20H108.316V12.286H106.706V13.406C106.23 12.776 105.334 12.16 104.032 12.16C102.002 12.16 100.392 13.728 100.392 16.108ZM106.706 16.136C106.706 17.802 105.572 18.74 104.368 18.74C103.178 18.74 102.03 17.774 102.03 16.108C102.03 14.442 103.178 13.546 104.368 13.546C105.572 13.546 106.706 14.484 106.706 16.136ZM110.412 20H112.008V9.64H110.412V20ZM114.104 20H115.7V12.286H114.104V20ZM114.916 11.264C115.476 11.264 115.924 10.816 115.924 10.242C115.924 9.668 115.476 9.22 114.916 9.22C114.342 9.22 113.894 9.668 113.894 10.242C113.894 10.816 114.342 11.264 114.916 11.264ZM123.269 20H124.851V15.45C124.851 13.294 123.493 12.16 121.687 12.16C120.763 12.16 119.909 12.538 119.391 13.168V12.286H117.795V20H119.391V15.688C119.391 14.274 120.161 13.546 121.337 13.546C122.499 13.546 123.269 14.274 123.269 15.688V20ZM126.355 16.108C126.355 18.488 127.965 20.126 129.995 20.126C131.255 20.126 132.179 19.496 132.669 18.838V20.126C132.669 21.666 131.745 22.422 130.513 22.422C129.407 22.422 128.553 21.876 128.315 21.078H126.733C126.929 22.786 128.455 23.808 130.513 23.808C132.921 23.808 134.279 22.226 134.279 20.126V12.286H132.669V13.406C132.193 12.748 131.255 12.16 129.995 12.16C127.965 12.16 126.355 13.728 126.355 16.108ZM132.669 16.136C132.669 17.802 131.535 18.74 130.331 18.74C129.141 18.74 127.993 17.774 127.993 16.108C127.993 14.442 129.141 13.546 130.331 13.546C131.535 13.546 132.669 14.484 132.669 16.136ZM139.48 15.114C139.48 18.04 141.706 20.084 144.45 20.084C146.48 20.084 148.23 19.076 148.972 17.172H147.054C146.536 18.208 145.612 18.698 144.45 18.698C142.518 18.698 141.118 17.312 141.118 15.114C141.118 12.916 142.518 11.544 144.45 11.544C145.612 11.544 146.536 12.034 147.054 13.07H148.972C148.23 11.166 146.48 10.144 144.45 10.144C141.706 10.144 139.48 12.202 139.48 15.114ZM152.436 15.94C152.436 14.302 153.164 13.812 154.34 13.812H154.746V12.16C153.654 12.16 152.884 12.636 152.436 13.406V12.286H150.84V20H152.436V15.94ZM159.461 13.504C160.651 13.504 161.589 14.26 161.617 15.45H157.347C157.515 14.232 158.383 13.504 159.461 13.504ZM163.073 17.704H161.351C161.057 18.306 160.511 18.782 159.531 18.782C158.355 18.782 157.445 18.012 157.333 16.738H163.227C163.269 16.472 163.283 16.22 163.283 15.954C163.283 13.686 161.729 12.16 159.531 12.16C157.249 12.16 155.681 13.714 155.681 16.136C155.681 18.558 157.319 20.126 159.531 20.126C161.421 20.126 162.639 19.048 163.073 17.704ZM164.322 16.108C164.322 18.488 165.932 20.126 167.934 20.126C169.222 20.126 170.146 19.51 170.636 18.852V20H172.246V12.286H170.636V13.406C170.16 12.776 169.264 12.16 167.962 12.16C165.932 12.16 164.322 13.728 164.322 16.108ZM170.636 16.136C170.636 17.802 169.502 18.74 168.298 18.74C167.108 18.74 165.96 17.774 165.96 16.108C165.96 14.442 167.108 13.546 168.298 13.546C169.502 13.546 170.636 14.484 170.636 16.136ZM185.276 20H186.858V15.45C186.858 13.294 185.486 12.16 183.68 12.16C182.56 12.16 181.468 12.748 180.992 13.686C180.46 12.678 179.438 12.16 178.22 12.16C177.296 12.16 176.456 12.538 175.938 13.168V12.286H174.342V20H175.938V15.688C175.938 14.274 176.708 13.546 177.884 13.546C179.046 13.546 179.816 14.274 179.816 15.688V20H181.398V15.688C181.398 14.274 182.168 13.546 183.344 13.546C184.506 13.546 185.276 14.274 185.276 15.688V20Z" fill="white"/>
<path d="M214.125 8.69998L220.725 15.3C220.825 15.4 220.896 15.5083 220.938 15.625C220.979 15.7416 221 15.8666 221 16C221 16.1333 220.979 16.2583 220.938 16.375C220.896 16.4916 220.825 16.6 220.725 16.7L214.125 23.3C213.942 23.4833 213.713 23.5793 213.438 23.588C213.163 23.596 212.925 23.5 212.725 23.3C212.525 23.1166 212.421 22.8876 212.412 22.613C212.404 22.3376 212.5 22.1 212.7 21.9L217.6 17L206.425 17C206.142 17 205.904 16.9043 205.712 16.713C205.521 16.521 205.425 16.2833 205.425 16C205.425 15.7166 205.521 15.4793 205.712 15.288C205.904 15.096 206.142 15 206.425 15L217.6 15L212.7 10.1C212.517 9.91665 212.421 9.68331 212.412 9.39998C212.404 9.11664 212.5 8.88331 212.7 8.69998C212.883 8.49998 213.117 8.39998 213.4 8.39998C213.683 8.39998 213.925 8.49998 214.125 8.69998Z" fill="white"/>
</svg>
