<svg width="24" height="24" viewBox="0 0 24 24" fill="none" xmlns="http://www.w3.org/2000/svg">
<path d="M13.125 4.70004L19.725 11.3C19.825 11.4 19.896 11.5084 19.938 11.625C19.9793 11.7417 20 11.8667 20 12C20 12.1334 19.9793 12.2584 19.938 12.375C19.896 12.4917 19.825 12.6 19.725 12.7L13.125 19.3C12.9417 19.4834 12.7127 19.5794 12.438 19.588C12.1627 19.596 11.925 19.5 11.725 19.3C11.525 19.1167 11.4207 18.8877 11.412 18.613C11.404 18.3377 11.5 18.1 11.7 17.9L16.6 13L5.425 13C5.14167 13 4.904 12.9044 4.712 12.713C4.52067 12.521 4.425 12.2834 4.425 12C4.425 11.7167 4.52067 11.4794 4.712 11.288C4.904 11.096 5.14167 11 5.425 11L16.6 11L11.7 6.10004C11.5167 5.91671 11.4207 5.68337 11.412 5.40004C11.404 5.11671 11.5 4.88337 11.7 4.70004C11.8833 4.50004 12.1167 4.40004 12.4 4.40004C12.6833 4.40004 12.925 4.50004 13.125 4.70004V4.70004Z" fill="white"/>
</svg>
