<svg width="74" height="36" viewBox="0 0 74 36" fill="none" xmlns="http://www.w3.org/2000/svg">
<rect width="74" height="36" rx="5" fill="#8D84B9"/>
<path d="M38.125 10.7L44.725 17.3C44.825 17.4 44.896 17.5084 44.938 17.625C44.9793 17.7417 45 17.8667 45 18C45 18.1334 44.9793 18.2584 44.938 18.375C44.896 18.4917 44.825 18.6 44.725 18.7L38.125 25.3C37.9417 25.4834 37.7127 25.5794 37.438 25.588C37.1627 25.596 36.925 25.5 36.725 25.3C36.525 25.1167 36.4207 24.8877 36.412 24.613C36.404 24.3377 36.5 24.1 36.7 23.9L41.6 19L30.425 19C30.1417 19 29.904 18.9044 29.712 18.713C29.5207 18.521 29.425 18.2834 29.425 18C29.425 17.7167 29.5207 17.4794 29.712 17.288C29.904 17.096 30.1417 17 30.425 17L41.6 17L36.7 12.1C36.5167 11.9167 36.4207 11.6834 36.412 11.4C36.404 11.1167 36.5 10.8834 36.7 10.7C36.8833 10.5 37.1167 10.4 37.4 10.4C37.6833 10.4 37.925 10.5 38.125 10.7V10.7Z" fill="white"/>
</svg>
