<svg width="74" height="36" viewBox="0 0 74 36" fill="none" xmlns="http://www.w3.org/2000/svg">
<rect x="74" y="36" width="74" height="36" rx="5" transform="rotate(180 74 36)" fill="#8D84B9"/>
<path d="M35.875 25.3L29.275 18.7C29.175 18.6 29.104 18.4916 29.062 18.375C29.0207 18.2583 29 18.1333 29 18C29 17.8666 29.0207 17.7416 29.062 17.625C29.104 17.5083 29.175 17.4 29.275 17.3L35.875 10.7C36.0583 10.5166 36.2873 10.4206 36.562 10.412C36.8373 10.404 37.075 10.5 37.275 10.7C37.475 10.8833 37.5793 11.1123 37.588 11.387C37.596 11.6623 37.5 11.9 37.3 12.1L32.4 17H43.575C43.8583 17 44.096 17.0956 44.288 17.287C44.4793 17.479 44.575 17.7166 44.575 18C44.575 18.2833 44.4793 18.5206 44.288 18.712C44.096 18.904 43.8583 19 43.575 19H32.4L37.3 23.9C37.4833 24.0833 37.5793 24.3166 37.588 24.6C37.596 24.8833 37.5 25.1166 37.3 25.3C37.1167 25.5 36.8833 25.6 36.6 25.6C36.3167 25.6 36.075 25.5 35.875 25.3V25.3Z" fill="white"/>
</svg>
