<svg width="52" height="50" viewBox="0 0 52 50" fill="none" xmlns="http://www.w3.org/2000/svg">
<path d="M26 41.825L13.55 49.325C13 49.675 12.425 49.825 11.825 49.775C11.225 49.725 10.7 49.525 10.25 49.175C9.79997 48.825 9.44997 48.388 9.19997 47.864C8.94997 47.338 8.89997 46.75 9.04997 46.1L12.35 31.925L1.32497 22.4C0.824967 21.95 0.512967 21.437 0.388967 20.861C0.262967 20.287 0.299967 19.725 0.499967 19.175C0.699967 18.625 0.999967 18.175 1.39997 17.825C1.79997 17.475 2.34997 17.25 3.04997 17.15L17.6 15.875L23.225 2.52498C23.475 1.92498 23.863 1.47498 24.389 1.17498C24.913 0.874976 25.45 0.724976 26 0.724976C26.55 0.724976 27.088 0.874976 27.614 1.17498C28.138 1.47498 28.525 1.92498 28.775 2.52498L34.4 15.875L48.95 17.15C49.65 17.25 50.2 17.475 50.6 17.825C51 18.175 51.3 18.625 51.5 19.175C51.7 19.725 51.738 20.287 51.614 20.861C51.488 21.437 51.175 21.95 50.675 22.4L39.65 31.925L42.95 46.1C43.1 46.75 43.05 47.338 42.8 47.864C42.55 48.388 42.2 48.825 41.75 49.175C41.3 49.525 40.775 49.725 40.175 49.775C39.575 49.825 39 49.675 38.45 49.325L26 41.825Z" fill="#FFD700"/>
<path d="M21.2225 24.02H23.4425C23.5825 23 24.3225 22.04 25.9225 22.04C27.4825 22.04 28.3025 22.88 28.3025 24.14C28.3025 25.7 27.0425 26.3 24.9825 26.32H24.4425V28.2H24.9625C27.3425 28.2 28.5825 28.86 28.5825 30.78C28.5825 32.14 27.7425 33.18 26.0425 33.18C24.3225 33.18 23.3225 32.14 23.2225 30.78H21.0225C21.1625 33.64 23.3025 35.08 26.0625 35.08C29.1025 35.08 30.7425 33.32 30.7425 31C30.7425 28.98 29.7625 27.72 28.2425 27.26V27.18C29.3825 26.8 30.4825 25.62 30.4825 23.88C30.4825 21.76 28.9025 20.08 26.0025 20.08C23.3425 20.08 21.3825 21.5 21.2225 24.02Z" fill="#484848"/>
</svg>
