<svg width="19" height="18" viewBox="0 0 19 18" fill="none" xmlns="http://www.w3.org/2000/svg">
<path d="M9.18341 17.5166C8.96953 17.3028 8.85753 17.0305 8.84741 16.7C8.83808 16.3694 8.94036 16.0972 9.15425 15.8833L14.8709 10.1666H1.83341C1.50286 10.1666 1.22558 10.0546 1.00158 9.83064C0.778359 9.60742 0.666748 9.33053 0.666748 8.99998C0.666748 8.66942 0.778359 8.39214 1.00158 8.16814C1.22558 7.94492 1.50286 7.83331 1.83341 7.83331H14.8709L9.15425 2.11664C8.94036 1.90275 8.83808 1.63053 8.84741 1.29998C8.85753 0.96942 8.96953 0.697197 9.18341 0.483308C9.3973 0.26942 9.66953 0.162476 10.0001 0.162476C10.3306 0.162476 10.6029 0.26942 10.8167 0.483308L18.5167 8.18331C18.6334 8.28053 18.7162 8.40187 18.7652 8.54731C18.8135 8.69353 18.8376 8.84442 18.8376 8.99998C18.8376 9.15553 18.8135 9.30136 18.7652 9.43748C18.7162 9.57359 18.6334 9.69998 18.5167 9.81664L10.8167 17.5166C10.6029 17.7305 10.3306 17.8375 10.0001 17.8375C9.66953 17.8375 9.3973 17.7305 9.18341 17.5166V17.5166Z" fill="white"/>
</svg>
